#!OML:ASF Y:\EmotionMaleHayes\Project 1\Capture day 1\Session 1\Male1.ASF
:FULLY-SPECIFIED
:DEGREES
101
root 27.0668 16.5347 -0.584279 287.635 86.673 289.889
lowerback 16.5755 4.35762 4.2484
upperback 2.05854 6.7763 1.73677
thorax -6.76944 3.25885 -2.01918
lowerneck -24.8067 -1.22573 2.25036
upperneck 24.0356 -2.56324 0.314881
head 11.9983 -0.826029 -0.684675
rclavicle -5.25785e-014 2.22639e-014
rhumerus -23.6346 11.5338 -82.8711
rradius 85.7214
rwrist -15.4213
rhand -27.7449 -29.4419
rfingers 7.12502
rthumb -1.13951 -59.4186
lclavicle -5.25785e-014 2.22639e-014
lhumerus -73.7014 -19.792 97.7464
lradius 69.3792
lwrist 9.5027
lhand -29.581 -21.2187
lfingers 7.12502
lthumb -2.91285 8.74117
rfemur 8.78544 1.25407 27.3775
rtibia 32.9938
rfoot -19.6816 0.990702
rtoes 4.53911
lfemur -35.0015 4.74175 -15.3174
ltibia 88.9982
lfoot 381.594 -59.0691
ltoes -8.80263
102
root 27.6185 16.6475 -0.627023 293.51 86.4273 295.966
lowerback 16.6203 4.74251 4.74116
upperback 1.90777 7.36605 1.60872
thorax -6.84389 3.523 -2.55644
lowerneck -24.4502 -1.68587 2.00766
upperneck 24.2127 -3.16929 0.555251
head 12.0009 -1.07815 -0.654701
rclavicle -4.1049e-014 -3.57812e-014
rhumerus -23.6765 12.6052 -83.2646
rradius 87.3839
rwrist -16.1659
rhand -27.3101 -29.2988
rfingers 7.12502
rthumb -0.719613 -59.2773
lclavicle -4.1049e-014 -3.57812e-014
lhumerus -75.6745 -20.3857 98.2353
lradius 69.2278
lwrist 8.96072
lhand -29.6634 -21.5568
lfingers 7.12502
lthumb -2.99238 8.40198
rfemur 11.5858 1.43051 26.877
rtibia 31.3635
rfoot -16.8962 2.01373
rtoes 4.79808
lfemur -35.6399 4.66977 -15.5107
ltibia 84.9344
lfoot 363.558 -25.9059
ltoes -9.08437
103
root 28.1832 16.7631 -0.667323 302.389 86.7008 305.019
lowerback 16.3822 5.19889 4.54364
upperback 1.86737 7.89378 1.3587
thorax -6.71036 3.78424 -2.79384
lowerneck -24.3614 -2.17139 1.69094
upperneck 24.5057 -3.80132 0.807974
head 12.1052 -1.34332 -0.616017
rclavicle 1.13953e-013 1.70955e-014
rhumerus -23.727 13.7095 -83.4406
rradius 88.9524
rwrist -15.9135
rhand -26.8548 -27.6622
rfingers 7.12502
rthumb -0.279847 -57.6418
lclavicle 1.13953e-013 1.70955e-014
lhumerus -77.465 -20.8336 98.5245
lradius 69.3648
lwrist 8.55731
lhand -29.6744 -22.1637
lfingers 7.12502
lthumb -3.003 7.7949
rfemur 14.3484 1.52022 25.577
rtibia 29.6751
rfoot -13.868 2.9335
rtoes 4.61627
lfemur -35.8477 4.50342 -16.3598
ltibia 78.7018
lfoot 353.579 8.09502
ltoes -8.79754
104
root 28.7605 16.8777 -0.707772 316.287 87.4891 319.062
lowerback 15.9176 5.6088 3.88373
upperback 1.8855 8.25169 0.894599
thorax -6.43224 3.9799 -2.93656
lowerneck -24.1502 -2.66449 1.34311
upperneck 24.6372 -4.47076 1.20177
head 12.1326 -1.6129 -0.522606
rclavicle -1.81391e-014 -1.74931e-014
rhumerus -23.83 14.8501 -83.6323
rradius 90.7823
rwrist -15.8958
rhand -26.1167 -29.0674
rfingers 7.12502
rthumb 0.433032 -59.0467
lclavicle -1.81391e-014 -1.74931e-014
lhumerus -79.1714 -21.2816 98.5437
lradius 69.7763
lwrist 8.58192
lhand -29.5641 -22.8626
lfingers 7.12502
lthumb -2.89648 7.09746
rfemur 17.1307 1.32776 23.4838
rtibia 27.8237
rfoot -10.5136 3.73521
rtoes 5.10235
lfemur -35.6902 4.09078 -17.8751
ltibia 72.9263
lfoot 352.917 10.1331
ltoes -7.69317
105
root 29.335 16.9936 -0.737065 323.331 87.8825 326.261
lowerback 15.5665 5.95577 3.7663
upperback 1.86779 8.64836 0.579651
thorax -6.19898 4.1816 -3.23399
lowerneck -23.9855 -3.31621 0.979963
upperneck 24.7125 -5.3531 1.55775
head 12.1522 -1.98563 -0.477839
rclavicle -2.01269e-014 5.96354e-015
rhumerus -24.0214 15.941 -83.7857
rradius 92.615
rwrist -16.2248
rhand -25.9729 -29.2737
rfingers 7.12502
rthumb 0.5719 -59.2526
lclavicle -2.01269e-014 5.96354e-015
lhumerus -80.8279 -21.7995 98.4737
lradius 70.2567
lwrist 8.77717
lhand -29.4012 -23.5637
lfingers 7.12502
lthumb -2.73918 6.39844
rfemur 19.7334 1.18111 22.2476
rtibia 26.1871
rfoot -7.06499 4.22574
rtoes 9.35676
lfemur -35.298 3.91975 -18.5842
ltibia 66.9947
lfoot 352.378 10.8221
ltoes -6.90381
106
root 29.8953 17.1018 -0.762475 326.687 87.5976 329.661
lowerback 15.3327 6.38622 3.97344
upperback 1.73497 9.23091 0.438185
thorax -6.11489 4.45995 -3.57713
lowerneck -24.4798 -3.89743 0.861065
upperneck 25.4824 -6.16573 1.57929
head 12.5598 -2.31921 -0.608835
rclavicle 2.74323e-014 -1.82882e-014
rhumerus -24.4679 17.1863 -84.014
rradius 94.5279
rwrist -16.9677
rhand -26.3176 -28.4239
rfingers 7.12502
rthumb 0.238978 -58.4035
lclavicle 2.74323e-014 -1.82882e-014
lhumerus -82.4837 -22.074 98.2886
lradius 70.723
lwrist 8.72052
lhand -29.4462 -24.7856
lfingers 7.12502
lthumb -2.78264 5.17595
rfemur 21.8109 1.52556 21.7957
rtibia 24.989
rfoot -3.87614 4.40664
rtoes 15.6914
lfemur -34.8701 4.44005 -18.5917
ltibia 60.9955
lfoot 351.379 10.7314
ltoes -6.31446
107
root 30.4604 17.201 -0.790986 331.628 87.3684 334.672
lowerback 15.0497 6.77369 3.99495
upperback 1.61073 9.72379 0.298481
thorax -6.02582 4.69991 -3.79054
lowerneck -24.1723 -4.15451 0.632667
upperneck 25.6059 -6.58418 2.09082
head 12.5828 -2.44612 -0.444566
rclavicle -7.40473e-015 3.29983e-014
rhumerus -25.0932 18.4639 -84.2986
rradius 96.5473
rwrist -17.5863
rhand -26.292 -28.4286
rfingers 7.12502
rthumb 0.263755 -58.4082
lclavicle -7.40473e-015 3.29983e-014
lhumerus -84.0324 -22.1174 97.885
lradius 71.5115
lwrist 9.45463
lhand -28.8473 -25.1947
lfingers 7.12502
lthumb -2.20423 4.7737
rfemur 23.84 1.96804 21.2929
rtibia 23.9311
rfoot -1.56921 4.16289
rtoes 19.9718
lfemur -34.1042 4.91443 -18.7646
ltibia 54.7323
lfoot 350.284 10.6495
ltoes 0.127903
108
root 31.0305 17.2902 -0.82434 337.192 87.1916 340.17
lowerback 14.5606 7.16073 4.03067
upperback 1.47138 10.2037 0.0667595
thorax -5.81819 4.93823 -4.06935
lowerneck -23.9658 -4.34151 0.766753
upperneck 25.7867 -6.85121 1.94711
head 12.604 -2.56316 -0.56448
rclavicle 3.09359e-014 3.97569e-015
rhumerus -25.7133 19.8126 -84.6377
rradius 98.4704
rwrist -18.7323
rhand -26.1897 -27.7234
rfingers 7.12502
rthumb 0.36255 -57.7028
lclavicle 3.09359e-014 3.97569e-015
lhumerus -85.455 -22.3274 97.3425
lradius 72.1009
lwrist 10.1448
lhand -28.2866 -25.6343
lfingers 7.12502
lthumb -1.66274 4.33897
rfemur 25.5172 2.39826 20.7468
rtibia 23.4555
rfoot -0.674169 3.58514
rtoes 21.2343
lfemur -32.4554 5.1447 -19.0477
ltibia 47.0617
lfoot 351.418 9.93476
ltoes -9.02047
109
root 31.6008 17.3682 -0.854622 340.878 87.07 343.654
lowerback 13.8555 7.47127 4.03152
upperback 1.30933 10.5695 -0.160916
thorax -5.52907 5.12582 -4.26794
lowerneck -23.9017 -4.872 0.123127
upperneck 25.9074 -7.65143 2.9066
head 12.7252 -2.83207 -0.235836
rclavicle -9.41494e-014 -1.03368e-014
rhumerus -26.2391 20.9811 -84.8747
rradius 100.133
rwrist -18.7713
rhand -26.7904 -26.7399
rfingers 7.12502
rthumb -0.217679 -56.7195
lclavicle -9.41494e-014 -1.03368e-014
lhumerus -86.7289 -22.3681 96.4502
lradius 72.8737
lwrist 10.4923
lhand -27.3024 -25.6231
lfingers 7.12502
lthumb -0.712196 4.35549
rfemur 26.676 2.78249 20.4082
rtibia 24.0002
rfoot -1.29941 2.30412
rtoes 20.1477
lfemur -30.9321 5.18358 -19.2915
ltibia 39.501
lfoot 352.026 8.6711
ltoes -9.29672
110
root 32.1635 17.4345 -0.874564 339.403 86.7413 341.95
lowerback 13.2134 7.81542 4.26878
upperback 1.20971 11.0257 -0.27623
thorax -5.17501 5.35895 -4.48196
lowerneck -24.3421 -5.43576 -0.376535
upperneck 26.3202 -8.45518 3.43593
head 13.0494 -3.13006 -0.11264
rclavicle 1.08474e-013 -6.55989e-015
rhumerus -26.6837 21.9912 -84.9601
rradius 101.717
rwrist -18.8116
rhand -26.236 -26.8793
rfingers 7.12502
rthumb 0.317812 -56.8588
lclavicle 1.08474e-013 -6.55989e-015
lhumerus -87.6 -22.2929 95.2064
lradius 73.8442
lwrist 10.3136
lhand -26.1018 -25.3048
lfingers 7.12502
lthumb 0.447407 4.67443
rfemur 27.2498 3.22412 20.6415
rtibia 25.7987
rfoot -2.89797 0.15494
rtoes 18.8171
lfemur -29.5176 5.33614 -19.0629
ltibia 32.3121
lfoot 352.484 7.13294
ltoes -9.19769
